{"asset":{"version":"2.0","generator":"Microsoft GLTF Exporter 2.4.2.8"},"accessors":[{"bufferView":0,"componentType":5123,"count":24,"type":"SCALAR","byteOffset":0},{"bufferView":1,"componentType":5123,"count":312,"type":"SCALAR","byteOffset":0},{"bufferView":2,"componentType":5126,"count":17,"type":"VEC3","max":[70.71070098876953,100,70.71068572998047],"min":[-70.71067810058594,-100,-70.71067810058594],"byteOffset":0},{"bufferView":3,"componentType":5126,"count":190,"type":"VEC3","max":[197.12965393066406,121.06377410888672,0],"min":[13.845508575439453,0,-15],"byteOffset":0},{"bufferView":4,"componentType":5126,"count":17,"type":"VEC3","byteOffset":0},{"bufferView":5,"componentType":5126,"count":190,"type":"VEC3","byteOffset":0},{"bufferView":6,"componentType":5126,"count":17,"type":"VEC2","byteOffset":0},{"bufferView":7,"componentType":5126,"count":190,"type":"VEC2","byteOffset":0},{"bufferView":8,"componentType":5126,"count":17,"type":"VEC4","byteOffset":0},{"bufferView":9,"componentType":5126,"count":190,"type":"VEC4","byteOffset":0}],"bufferViews":[{"buffer":0,"byteOffset":0,"byteLength":48,"target":34963},{"buffer":0,"byteOffset":48,"byteLength":624,"target":34963},{"buffer":0,"byteOffset":672,"byteLength":204,"target":34962},{"buffer":0,"byteOffset":876,"byteLength":2280,"target":34962},{"buffer":0,"byteOffset":3156,"byteLength":204,"target":34962},{"buffer":0,"byteOffset":3360,"byteLength":2280,"target":34962},{"buffer":0,"byteOffset":5640,"byteLength":136,"target":34962},{"buffer":0,"byteOffset":5776,"byteLength":1520,"target":34962},{"buffer":0,"byteOffset":7296,"byteLength":272,"target":34962},{"buffer":0,"byteOffset":7568,"byteLength":3040,"target":34962},{"buffer":0,"byteOffset":10608,"byteLength":30600},{"buffer":0,"byteOffset":41208,"byteLength":162},{"buffer":0,"byteOffset":41370,"byteLength":27342},{"buffer":0,"byteOffset":68712,"byteLength":21313},{"buffer":0,"byteOffset":90025,"byteLength":87320},{"buffer":0,"byteOffset":177345,"byteLength":76805},{"buffer":0,"byteOffset":254150,"byteLength":87320},{"buffer":0,"byteOffset":341470,"byteLength":34401}],"buffers":[{"byteLength":375872,"uri":"data:application/octet-stream;base64,"}],"images":[{"bufferView":10,"mimeType":"image/png"},{"bufferView":11,"mimeType":"image/png"},{"bufferView":12,"mimeType":"image/png"},{"bufferView":13,"mimeType":"image/png"},{"bufferView":14,"mimeType":"image/png"},{"bufferView":15,"mimeType":"image/png"},{"bufferView":16,"mimeType":"image/png"},{"bufferView":17,"mimeType":"image/png"}],"materials":[{"pbrMetallicRoughness":{"baseColorTexture":{"index":2},"metallicRoughnessTexture":{"index":3},"baseColorFactor":[1,1,1,1],"metallicFactor":1,"roughnessFactor":1},"alphaMode":"MASK","name":"31","doubleSided":true,"extensions":{"KHR_materials_pbrSpecularGlossiness":{"diffuseTexture":{"index":0},"specularGlossinessTexture":{"index":1}}},"extras":{"MSFT_sRGBFactors":false},"emissiveFactor":[0,0,0],"alphaCutoff":0.5},{"pbrMetallicRoughness":{"baseColorTexture":{"index":6},"metallicRoughnessTexture":{"index":7},"baseColorFactor":[1,1,1,1],"metallicFactor":1,"roughnessFactor":1},"alphaMode":"MASK","name":"32","doubleSided":true,"extensions":{"KHR_materials_pbrSpecularGlossiness":{"diffuseTexture":{"index":4},"specularGlossinessTexture":{"index":5}}},"extras":{"MSFT_sRGBFactors":false},"emissiveFactor":[0,0,0],"alphaCutoff":0.5}],"meshes":[{"name":"mesh_id7","primitives":[{"attributes":{"POSITION":2,"NORMAL":4,"TEXCOORD_0":6,"COLOR_0":8},"indices":0,"material":0,"mode":4}]},{"name":"mesh_id11","primitives":[{"attributes":{"POSITION":3,"NORMAL":5,"TEXCOORD_0":7,"COLOR_0":9},"indices":1,"material":1,"mode":4}]}],"nodes":[{"mesh":0,"name":"node_id6"},{"children":[3,4],"translation":[-0.030771054327487946,-0.017383607104420662,0.20842494070529938],"rotation":[0.5,0.5000000596046448,0.5,-0.5],"scale":[0.0009999999310821295,0.0009999999310821295,0.0009999999310821295],"name":"node_id40"},{"children":[1],"name":"root"},{"children":[0],"translation":[46.9217529296875,37.75947952270508,413.98046875],"rotation":[0.7024888396263123,-0.08068179339170456,0.7024887204170227,-0.08068163692951202],"scale":[0.6059861779212952,2.4251272678375244,0.925605058670044],"name":"node_id5"},{"children":[6],"translation":[39.23457336425781,44.452491760253906,150.0011444091797],"rotation":[0.5000001192092896,0.5,0.49999988079071045,0.5],"scale":[2.5428202152252197,2.47806715965271,7.139108180999756],"name":"node_id8"},{"mesh":1,"name":"node_id10"},{"children":[5],"translation":[-105.487548828125,-60.53188705444336,7.5],"name":"node_id9","rotation":[0,0,0,1],"scale":[1,1,1]}],"samplers":[{"minFilter":9985,"wrapS":10497,"wrapT":10497}],"scenes":[{"nodes":[2]}],"scene":0,"textures":[{"name":"texture3","sampler":0,"source":0},{"name":"texture4","sampler":0,"source":1},{"name":"31_bc","sampler":0,"source":2},{"name":"31_mr","sampler":0,"source":3},{"name":"texture5","sampler":0,"source":4},{"name":"texture6","sampler":0,"source":5},{"name":"32_bc","sampler":0,"source":6},{"name":"32_mr","sampler":0,"source":7}],"extensionsUsed":["KHR_materials_pbrSpecularGlossiness"]}
